<svg id="visual" viewBox="0 0 900 600" width="900" height="600" xmlns="http://www.w3.org/2000/svg" xmlns:xlink="http://www.w3.org/1999/xlink" version="1.1"><rect x="0" y="0" width="900" height="600" fill="#001220"></rect><path d="M0 391L21.5 397.7C43 404.3 86 417.7 128.8 419.2C171.7 420.7 214.3 410.3 257.2 405.5C300 400.7 343 401.3 385.8 404.2C428.7 407 471.3 412 514.2 414.5C557 417 600 417 642.8 416.3C685.7 415.7 728.3 414.3 771.2 414.2C814 414 857 415 878.5 415.5L900 416L900 601L878.5 601C857 601 814 601 771.2 601C728.3 601 685.7 601 642.8 601C600 601 557 601 514.2 601C471.3 601 428.7 601 385.8 601C343 601 300 601 257.2 601C214.3 601 171.7 601 128.8 601C86 601 43 601 21.5 601L0 601Z" fill="#715df2"></path><path d="M0 446L21.5 442C43 438 86 430 128.8 422.7C171.7 415.3 214.3 408.7 257.2 411.5C300 414.3 343 426.7 385.8 432.7C428.7 438.7 471.3 438.3 514.2 442.2C557 446 600 454 642.8 459.7C685.7 465.3 728.3 468.7 771.2 458C814 447.3 857 422.7 878.5 410.3L900 398L900 601L878.5 601C857 601 814 601 771.2 601C728.3 601 685.7 601 642.8 601C600 601 557 601 514.2 601C471.3 601 428.7 601 385.8 601C343 601 300 601 257.2 601C214.3 601 171.7 601 128.8 601C86 601 43 601 21.5 601L0 601Z" fill="#6c50f6"></path><path d="M0 438L21.5 446.3C43 454.7 86 471.3 128.8 473.7C171.7 476 214.3 464 257.2 467C300 470 343 488 385.8 491C428.7 494 471.3 482 514.2 480.5C557 479 600 488 642.8 490.2C685.7 492.3 728.3 487.7 771.2 486.2C814 484.7 857 486.3 878.5 487.2L900 488L900 601L878.5 601C857 601 814 601 771.2 601C728.3 601 685.7 601 642.8 601C600 601 557 601 514.2 601C471.3 601 428.7 601 385.8 601C343 601 300 601 257.2 601C214.3 601 171.7 601 128.8 601C86 601 43 601 21.5 601L0 601Z" fill="#6940fa"></path><path d="M0 507L21.5 506.7C43 506.3 86 505.7 128.8 506.3C171.7 507 214.3 509 257.2 510.3C300 511.7 343 512.3 385.8 507.7C428.7 503 471.3 493 514.2 489.7C557 486.3 600 489.7 642.8 498.2C685.7 506.7 728.3 520.3 771.2 523C814 525.7 857 517.3 878.5 513.2L900 509L900 601L878.5 601C857 601 814 601 771.2 601C728.3 601 685.7 601 642.8 601C600 601 557 601 514.2 601C471.3 601 428.7 601 385.8 601C343 601 300 601 257.2 601C214.3 601 171.7 601 128.8 601C86 601 43 601 21.5 601L0 601Z" fill="#672bfd"></path><path d="M0 559L21.5 561.2C43 563.3 86 567.7 128.8 562C171.7 556.3 214.3 540.7 257.2 539.3C300 538 343 551 385.8 555.8C428.7 560.7 471.3 557.3 514.2 558.5C557 559.7 600 565.3 642.8 567.5C685.7 569.7 728.3 568.3 771.2 563.7C814 559 857 551 878.5 547L900 543L900 601L878.5 601C857 601 814 601 771.2 601C728.3 601 685.7 601 642.8 601C600 601 557 601 514.2 601C471.3 601 428.7 601 385.8 601C343 601 300 601 257.2 601C214.3 601 171.7 601 128.8 601C86 601 43 601 21.5 601L0 601Z" fill="#6600ff"></path></svg>