<svg id="visual" viewBox="0 0 900 600" width="900" height="600" xmlns="http://www.w3.org/2000/svg" xmlns:xlink="http://www.w3.org/1999/xlink" version="1.1"><g stroke-width="1" stroke-linejoin="bevel"><path d="M423 295L433 363L514 285Z" fill="#643ec5" stroke="#643ec5"></path><path d="M514 285L500 229L423 295Z" fill="#4400a9" stroke="#4400a9"></path><path d="M433 363L480 427L514 285Z" fill="#b0a4ff" stroke="#b0a4ff"></path><path d="M500 229L392 227L423 295Z" fill="#4400a9" stroke="#4400a9"></path><path d="M423 295L316 337L433 363Z" fill="#b0a4ff" stroke="#b0a4ff"></path><path d="M593 433L611 262L514 285Z" fill="#795cd6" stroke="#795cd6"></path><path d="M514 285L572 205L500 229Z" fill="#643ec5" stroke="#643ec5"></path><path d="M611 262L572 205L514 285Z" fill="#846adf" stroke="#846adf"></path><path d="M500 229L384 117L392 227Z" fill="#6e4dcd" stroke="#6e4dcd"></path><path d="M392 227L316 337L423 295Z" fill="#643ec5" stroke="#643ec5"></path><path d="M433 363L392 498L480 427Z" fill="#8e79e7" stroke="#8e79e7"></path><path d="M480 427L593 433L514 285Z" fill="#4400a9" stroke="#4400a9"></path><path d="M316 337L392 498L433 363Z" fill="#b0a4ff" stroke="#b0a4ff"></path><path d="M480 427L492 517L593 433Z" fill="#643ec5" stroke="#643ec5"></path><path d="M392 498L492 517L480 427Z" fill="#592fbc" stroke="#592fbc"></path><path d="M306 128L284 202L392 227Z" fill="#a496f7" stroke="#a496f7"></path><path d="M392 227L284 202L316 337Z" fill="#6e4dcd" stroke="#6e4dcd"></path><path d="M677 194L595 136L572 205Z" fill="#795cd6" stroke="#795cd6"></path><path d="M572 205L524 72L500 229Z" fill="#4f1cb2" stroke="#4f1cb2"></path><path d="M524 72L384 117L500 229Z" fill="#4400a9" stroke="#4400a9"></path><path d="M492 517L582 520L593 433Z" fill="#4f1cb2" stroke="#4f1cb2"></path><path d="M711 395L699 290L593 433Z" fill="#592fbc" stroke="#592fbc"></path><path d="M593 433L699 290L611 262Z" fill="#a496f7" stroke="#a496f7"></path><path d="M611 262L677 194L572 205Z" fill="#b0a4ff" stroke="#b0a4ff"></path><path d="M284 202L236 308L316 337Z" fill="#643ec5" stroke="#643ec5"></path><path d="M316 337L263 434L392 498Z" fill="#795cd6" stroke="#795cd6"></path><path d="M224 394L263 434L316 337Z" fill="#592fbc" stroke="#592fbc"></path><path d="M699 290L677 194L611 262Z" fill="#a496f7" stroke="#a496f7"></path><path d="M706 483L711 395L593 433Z" fill="#6e4dcd" stroke="#6e4dcd"></path><path d="M384 117L306 128L392 227Z" fill="#8e79e7" stroke="#8e79e7"></path><path d="M284 202L218 223L236 308Z" fill="#4400a9" stroke="#4400a9"></path><path d="M570 0L524 72L595 136Z" fill="#9987ef" stroke="#9987ef"></path><path d="M595 136L524 72L572 205Z" fill="#643ec5" stroke="#643ec5"></path><path d="M384 117L297 0L306 128Z" fill="#795cd6" stroke="#795cd6"></path><path d="M225 526L270 482L263 434Z" fill="#b0a4ff" stroke="#b0a4ff"></path><path d="M263 434L270 482L392 498Z" fill="#8e79e7" stroke="#8e79e7"></path><path d="M411 600L490 600L492 517Z" fill="#795cd6" stroke="#795cd6"></path><path d="M236 308L224 394L316 337Z" fill="#592fbc" stroke="#592fbc"></path><path d="M189 135L218 223L284 202Z" fill="#9987ef" stroke="#9987ef"></path><path d="M236 308L106 314L224 394Z" fill="#9987ef" stroke="#9987ef"></path><path d="M411 600L492 517L392 498Z" fill="#846adf" stroke="#846adf"></path><path d="M492 517L563 600L582 520Z" fill="#8e79e7" stroke="#8e79e7"></path><path d="M712 600L706 483L582 520Z" fill="#b0a4ff" stroke="#b0a4ff"></path><path d="M582 520L706 483L593 433Z" fill="#a496f7" stroke="#a496f7"></path><path d="M329 600L411 600L392 498Z" fill="#643ec5" stroke="#643ec5"></path><path d="M490 600L563 600L492 517Z" fill="#4f1cb2" stroke="#4f1cb2"></path><path d="M711 395L767 302L699 290Z" fill="#795cd6" stroke="#795cd6"></path><path d="M699 290L794 176L677 194Z" fill="#b0a4ff" stroke="#b0a4ff"></path><path d="M839 436L767 302L711 395Z" fill="#9987ef" stroke="#9987ef"></path><path d="M794 176L677 92L677 194Z" fill="#8e79e7" stroke="#8e79e7"></path><path d="M677 194L677 92L595 136Z" fill="#8e79e7" stroke="#8e79e7"></path><path d="M270 482L329 600L392 498Z" fill="#b0a4ff" stroke="#b0a4ff"></path><path d="M225 526L329 600L270 482Z" fill="#846adf" stroke="#846adf"></path><path d="M224 394L225 526L263 434Z" fill="#b0a4ff" stroke="#b0a4ff"></path><path d="M87 494L225 526L224 394Z" fill="#846adf" stroke="#846adf"></path><path d="M570 0L475 0L524 72Z" fill="#4f1cb2" stroke="#4f1cb2"></path><path d="M524 72L475 0L384 117Z" fill="#6e4dcd" stroke="#6e4dcd"></path><path d="M475 0L408 0L384 117Z" fill="#6e4dcd" stroke="#6e4dcd"></path><path d="M306 128L189 135L284 202Z" fill="#a496f7" stroke="#a496f7"></path><path d="M677 92L570 0L595 136Z" fill="#b0a4ff" stroke="#b0a4ff"></path><path d="M297 0L189 135L306 128Z" fill="#795cd6" stroke="#795cd6"></path><path d="M218 223L106 314L236 308Z" fill="#4f1cb2" stroke="#4f1cb2"></path><path d="M767 302L794 176L699 290Z" fill="#b0a4ff" stroke="#b0a4ff"></path><path d="M677 92L706 0L570 0Z" fill="#592fbc" stroke="#592fbc"></path><path d="M780 600L806 468L706 483Z" fill="#a496f7" stroke="#a496f7"></path><path d="M706 483L806 468L711 395Z" fill="#592fbc" stroke="#592fbc"></path><path d="M767 302L900 224L794 176Z" fill="#a496f7" stroke="#a496f7"></path><path d="M89 221L106 314L218 223Z" fill="#592fbc" stroke="#592fbc"></path><path d="M563 600L712 600L582 520Z" fill="#4f1cb2" stroke="#4f1cb2"></path><path d="M408 0L297 0L384 117Z" fill="#795cd6" stroke="#795cd6"></path><path d="M130 600L218 600L225 526Z" fill="#9987ef" stroke="#9987ef"></path><path d="M225 526L218 600L329 600Z" fill="#795cd6" stroke="#795cd6"></path><path d="M900 525L839 436L806 468Z" fill="#8e79e7" stroke="#8e79e7"></path><path d="M806 468L839 436L711 395Z" fill="#795cd6" stroke="#795cd6"></path><path d="M900 128L790 97L794 176Z" fill="#8e79e7" stroke="#8e79e7"></path><path d="M794 176L790 97L677 92Z" fill="#9987ef" stroke="#9987ef"></path><path d="M189 135L89 221L218 223Z" fill="#795cd6" stroke="#795cd6"></path><path d="M94 64L89 221L189 135Z" fill="#9987ef" stroke="#9987ef"></path><path d="M790 97L706 0L677 92Z" fill="#4400a9" stroke="#4400a9"></path><path d="M0 315L67 382L106 314Z" fill="#6e4dcd" stroke="#6e4dcd"></path><path d="M106 314L67 382L224 394Z" fill="#6e4dcd" stroke="#6e4dcd"></path><path d="M712 600L780 600L706 483Z" fill="#846adf" stroke="#846adf"></path><path d="M67 382L87 494L224 394Z" fill="#8e79e7" stroke="#8e79e7"></path><path d="M900 394L900 338L839 436Z" fill="#a496f7" stroke="#a496f7"></path><path d="M839 436L900 338L767 302Z" fill="#9987ef" stroke="#9987ef"></path><path d="M900 525L900 394L839 436Z" fill="#b0a4ff" stroke="#b0a4ff"></path><path d="M900 338L900 224L767 302Z" fill="#9987ef" stroke="#9987ef"></path><path d="M790 97L779 0L706 0Z" fill="#795cd6" stroke="#795cd6"></path><path d="M87 494L130 600L225 526Z" fill="#592fbc" stroke="#592fbc"></path><path d="M297 0L168 0L189 135Z" fill="#795cd6" stroke="#795cd6"></path><path d="M900 0L779 0L790 97Z" fill="#a496f7" stroke="#a496f7"></path><path d="M168 0L94 64L189 135Z" fill="#b0a4ff" stroke="#b0a4ff"></path><path d="M89 221L0 315L106 314Z" fill="#a496f7" stroke="#a496f7"></path><path d="M900 224L900 128L794 176Z" fill="#592fbc" stroke="#592fbc"></path><path d="M168 0L130 0L94 64Z" fill="#592fbc" stroke="#592fbc"></path><path d="M0 191L0 315L89 221Z" fill="#9987ef" stroke="#9987ef"></path><path d="M67 382L0 384L87 494Z" fill="#643ec5" stroke="#643ec5"></path><path d="M87 494L0 600L130 600Z" fill="#643ec5" stroke="#643ec5"></path><path d="M780 600L900 525L806 468Z" fill="#4400a9" stroke="#4400a9"></path><path d="M0 315L0 384L67 382Z" fill="#8e79e7" stroke="#8e79e7"></path><path d="M0 101L0 191L89 221Z" fill="#4400a9" stroke="#4400a9"></path><path d="M0 101L89 221L94 64Z" fill="#643ec5" stroke="#643ec5"></path><path d="M780 600L900 600L900 525Z" fill="#795cd6" stroke="#795cd6"></path><path d="M0 384L0 525L87 494Z" fill="#4400a9" stroke="#4400a9"></path><path d="M0 0L0 101L94 64Z" fill="#b0a4ff" stroke="#b0a4ff"></path><path d="M900 128L900 0L790 97Z" fill="#4400a9" stroke="#4400a9"></path><path d="M0 525L0 600L87 494Z" fill="#795cd6" stroke="#795cd6"></path><path d="M130 0L0 0L94 64Z" fill="#6e4dcd" stroke="#6e4dcd"></path></g></svg>